<svg id="Layer_1" enable-background="new 0 0 512 512" height="512" viewBox="0 0 512 512" width="512" xmlns="http://www.w3.org/2000/svg"><g><path d="m489.697 254.02-54.73-24.35v-27.853c0-10.628-8.632-19.275-19.243-19.275h-15.503c-10.611 0-19.243 8.647-19.243 19.275v3.833l-76.647-34.102 2.74-65.058c1.533-36.396-10.778-71.559-34.664-99.011-4.137-4.754-10.121-7.481-16.417-7.48-6.27.001-12.229 2.707-16.363 7.425-.018.02-.036.041-.054.062-23.873 27.448-36.176 62.602-34.643 98.987l2.74 65.075-76.648 34.102v-3.833c0-10.628-8.632-19.275-19.243-19.275h-15.503c-10.611 0-19.243 8.647-19.243 19.275v27.853l-54.731 24.35c-13.548 6.028-22.302 19.523-22.302 34.379 0 4.133 1.784 8.063 4.896 10.779 2.617 2.286 5.958 3.524 9.389 3.524.639 0 1.281-.043 1.923-.13l63.242-8.601c4.113-.559 6.993-4.346 6.434-8.459-.56-4.112-4.341-6.987-8.459-6.434l-62.379 8.484c.317-8.592 5.493-16.306 13.368-19.81l179.937-80.056 3.081 73.157-104.191 14.171c-4.113.559-6.993 4.346-6.433 8.459.513 3.769 3.736 6.503 7.437 6.503.337 0 .678-.023 1.022-.069l102.801-13.982 6.512 154.626-69.131 36.51c-9.637 5.089-15.623 15.032-15.623 25.947v5.447c0 4.086 1.816 7.91 4.982 10.491 3.164 2.579 7.273 3.587 11.269 2.765l105.922-21.797 23.646 4.866c4.068.837 8.039-1.781 8.875-5.846.837-4.065-1.781-8.039-5.846-8.875l-25.16-5.178c-.999-.206-2.03-.206-3.029 0l-105.63 21.737v-3.61c0-5.327 2.917-10.178 7.613-12.658l73.329-38.727c2.565-1.354 4.121-4.064 3.999-6.961l-13.848-328.83c-1.369-32.511 9.615-63.92 30.932-88.45.013-.015.027-.03.04-.045 1.299-1.494 3.102-2.317 5.076-2.317s3.777.822 5.077 2.317c21.352 24.539 32.357 55.973 30.987 88.512l-13.848 328.816c-.122 2.897 1.434 5.607 3.999 6.961l73.323 38.723c4.696 2.48 7.613 7.33 7.613 12.658v3.61l-51.009-10.497c-4.067-.835-8.039 1.781-8.875 5.846-.837 4.065 1.781 8.039 5.846 8.875l52.817 10.869c.913.188 1.832.28 2.744.28 3.081 0 6.084-1.055 8.526-3.045 3.166-2.581 4.982-6.405 4.982-10.491v-5.447c0-10.915-5.986-20.858-15.623-25.947l-69.124-36.506 6.512-154.629 40.225 5.471c.344.047.685.069 1.022.069 3.701 0 6.924-2.734 7.437-6.503.559-4.112-2.321-7.9-6.434-8.459l-41.616-5.66 3.081-73.157 179.936 80.056c7.875 3.504 13.051 11.218 13.368 19.81l-124.964-16.996c-4.113-.559-7.899 2.321-8.459 6.434-.559 4.112 2.321 7.9 6.433 8.459l125.827 17.113c.641.087 1.283.13 1.923.13 3.43 0 6.771-1.238 9.388-3.524 3.112-2.717 4.896-6.646 4.896-10.78-.006-14.855-8.76-28.35-22.309-34.378zm-397.634-52.203c0-2.341 1.89-4.246 4.213-4.246h15.503c2.323 0 4.213 1.905 4.213 4.246v10.519l-23.93 10.646v-21.165zm303.945 0c0-2.341 1.89-4.246 4.213-4.246h15.503c2.323 0 4.213 1.905 4.213 4.246v21.166l-23.93-10.646v-10.52z"/></g></svg>